<?xml version="1.0" encoding="utf-8"?>
<!-- Generator: Adobe Illustrator 16.0.3, SVG Export Plug-In . SVG Version: 6.00 Build 0)  -->
<!DOCTYPE svg PUBLIC "-//W3C//DTD SVG 1.1//EN" "http://www.w3.org/Graphics/SVG/1.1/DTD/svg11.dtd">
<svg version="1.1" id="Layer_1" xmlns="http://www.w3.org/2000/svg" xmlns:xlink="http://www.w3.org/1999/xlink" x="0px" y="0px"
	 width="300px" height="259.889px" viewBox="0 0 300 259.889" enable-background="new 0 0 300 259.889" xml:space="preserve">
<polygon fill-rule="evenodd" clip-rule="evenodd" fill="#494949" points="10,28.004 10,68.004 115,84.004 150,54.004 185,84.004 
	290,68.004 290,28.004 185,49.004 150,14.004 115,49.004 "/>
<polygon fill-rule="evenodd" clip-rule="evenodd" fill="#494949" points="10,85.004 10,125.004 115,136.004 150,106.004 
	185,136.004 290,125.004 290,85.004 185,101.004 150,71.004 115,101.004 "/>
<radialGradient id="SVGID_1_" cx="151" cy="40.9443" r="134.8119" gradientTransform="matrix(1 0 0 1.4238 0 -17.3506)" gradientUnits="userSpaceOnUse">
	<stop  offset="0" style="stop-color:#066A25"/>
	<stop  offset="1" style="stop-color:#064125"/>
</radialGradient>
<path display="none" fill-rule="evenodd" clip-rule="evenodd" fill="url(#SVGID_1_)" d="M35,140.556
	c0,55.62,96.481,111.111,96.481,111.111c10.917,10.963,26.121,10.963,37.037,0c0,0,96.481-55.491,96.481-111.111V18.519
	c0-15.408-12.436-4.63-27.778-4.63h-27.037C206.611,5.676,196.528,0,187.037,0h-74.074c-9.491,0-19.574,5.676-23.148,13.889H62.778
	C47.436,13.889,35,3.111,35,18.519V140.556z"/>
<path fill-rule="evenodd" clip-rule="evenodd" d="M35,140.556c0,55.62,96.481,111.111,96.481,111.111
	c10.917,10.963,26.121,10.963,37.037,0c0,0,96.481-55.491,96.481-111.111V18.519c0-15.408-12.436-4.63-27.778-4.63h-27.037
	C206.611,5.676,196.528,0,187.037,0h-74.074c-9.491,0-19.574,5.676-23.148,13.889H62.778C47.436,13.889,35,3.111,35,18.519V140.556z
	"/>
<polygon fill-rule="evenodd" clip-rule="evenodd" fill="#005121" points="10,28.004 10,68.004 115,144.004 150,114.004 185,144.004 
	290,68.004 290,28.004 185,109.004 150,74.004 115,109.004 "/>
<polygon fill-rule="evenodd" clip-rule="evenodd" fill="#005121" points="10,85.004 10,125.004 115,196.004 150,166.004 
	185,196.004 290,125.004 290,85.004 185,161.004 150,131.004 115,161.004 "/>
<polygon opacity="0.7" fill-rule="evenodd" clip-rule="evenodd" fill="#428700" points="10,50.004 10,90.004 115,161.004 
	150,131.004 185,161.004 290,90.004 290,50.004 185,126.004 150,91.004 115,126.004 "/>
<linearGradient id="SVGID_2_" gradientUnits="userSpaceOnUse" x1="10" y1="83.5044" x2="290" y2="83.5044">
	<stop  offset="0" style="stop-color:#595959"/>
	<stop  offset="0.25" style="stop-color:#FFFFFF"/>
	<stop  offset="0.75" style="stop-color:#FFFFFF"/>
	<stop  offset="1" style="stop-color:#595959"/>
</linearGradient>
<polygon fill-rule="evenodd" clip-rule="evenodd" fill="url(#SVGID_2_)" points="10,28.004 10,68.004 115,139.004 150,109.004 
	185,139.004 290,68.004 290,28.004 185,104.004 150,69.004 115,104.004 "/>
<linearGradient id="SVGID_3_" gradientUnits="userSpaceOnUse" x1="10" y1="138.0044" x2="290" y2="138.0044">
	<stop  offset="0" style="stop-color:#595959"/>
	<stop  offset="0.25" style="stop-color:#FFFFFF"/>
	<stop  offset="0.75" style="stop-color:#FFFFFF"/>
	<stop  offset="1" style="stop-color:#595959"/>
</linearGradient>
<polygon fill-rule="evenodd" clip-rule="evenodd" fill="url(#SVGID_3_)" points="10,85.004 10,125.004 115,191.004 150,161.004 
	185,191.004 290,125.004 290,85.004 185,156.004 150,126.004 115,156.004 "/>
</svg>
