<?xml version="1.0" encoding="utf-8"?>
<!-- Generator: Adobe Illustrator 16.0.3, SVG Export Plug-In . SVG Version: 6.00 Build 0)  -->
<!DOCTYPE svg PUBLIC "-//W3C//DTD SVG 1.1//EN" "http://www.w3.org/Graphics/SVG/1.1/DTD/svg11.dtd">
<svg version="1.1" id="Layer_1" xmlns="http://www.w3.org/2000/svg" xmlns:xlink="http://www.w3.org/1999/xlink" x="0px" y="0px"
	 width="54px" height="53.998px" viewBox="0 0 54 53.998" enable-background="new 0 0 54 53.998" xml:space="preserve">
<path fill-rule="evenodd" clip-rule="evenodd" fill="#008E3D" d="M0,28.12c0,12.01,23,24.1,23,24.1c2.36,2.37,5.641,2.37,8,0
	c0,0,23-12.09,23-24.1V4.02c0-3.33-2.689-1.01-6-1.01h-8C39.23,1.24,37.05,0,35,0H19c-2.05,0-4.23,1.24-5,3.01H6
	c-3.31,0-6-2.32-6,1.01V28.12z"/>
<polygon fill-rule="evenodd" clip-rule="evenodd" fill="#FFFFFF" points="0,5.03 0,13.07 20,30.13 27,24.11 35,30.13 54,13.07 
	54,5.03 34,23.1 27,16.08 20,23.1 "/>
<polygon fill-rule="evenodd" clip-rule="evenodd" fill="#FFFFFF" points="0,20.09 0,28.12 20,44.19 27,38.16 35,44.19 54,28.12 
	54,20.09 34,37.16 27,31.13 20,37.16 "/>
</svg>
