<?xml version="1.0" encoding="utf-8"?>
<!-- Generator: Adobe Illustrator 16.0.3, SVG Export Plug-In . SVG Version: 6.00 Build 0)  -->
<!DOCTYPE svg PUBLIC "-//W3C//DTD SVG 1.1//EN" "http://www.w3.org/Graphics/SVG/1.1/DTD/svg11.dtd">
<svg version="1.1" id="Layer_1" xmlns="http://www.w3.org/2000/svg" xmlns:xlink="http://www.w3.org/1999/xlink" x="0px" y="0px"
	 width="311px" height="192.004px" viewBox="-6 4 311 192.004" enable-background="new -6 4 311 192.004" xml:space="preserve">
<g opacity="0.7" enable-background="new    ">
	<polygon fill="#428700" points="264.999,62.001 264.999,100.334 305,73 305,33 	"/>
	<polygon fill="#428700" points="35,62.48 -6,33 -6,73 35,100.785 	"/>
</g>
<g>
	<linearGradient id="SVGID_1_" gradientUnits="userSpaceOnUse" x1="-6" y1="94.8928" x2="35" y2="94.8928">
		<stop  offset="0" style="stop-color:#595959"/>
		<stop  offset="0.75" style="stop-color:#808080"/>
		<stop  offset="1" style="stop-color:#595959"/>
	</linearGradient>
	<polygon fill="url(#SVGID_1_)" points="35,90.48 -6,61 -6,101 35,128.785 	"/>
	<linearGradient id="SVGID_2_" gradientUnits="userSpaceOnUse" x1="264.999" y1="94.6672" x2="305" y2="94.6672">
		<stop  offset="0" style="stop-color:#595959"/>
		<stop  offset="0.75" style="stop-color:#808080"/>
		<stop  offset="1" style="stop-color:#595959"/>
	</linearGradient>
	<polygon fill="url(#SVGID_2_)" points="264.999,90.001 264.999,128.334 305,101 305,61 	"/>
</g>
<g>
	<linearGradient id="SVGID_3_" gradientUnits="userSpaceOnUse" x1="264.999" y1="37.6672" x2="305" y2="37.6672">
		<stop  offset="0" style="stop-color:#595959"/>
		<stop  offset="0.75" style="stop-color:#808080"/>
		<stop  offset="1" style="stop-color:#595959"/>
	</linearGradient>
	<polygon fill="url(#SVGID_3_)" points="264.999,33.001 264.999,71.334 305,44 305,4 	"/>
	<linearGradient id="SVGID_4_" gradientUnits="userSpaceOnUse" x1="-6" y1="37.8928" x2="35" y2="37.8928">
		<stop  offset="0" style="stop-color:#595959"/>
		<stop  offset="0.75" style="stop-color:#808080"/>
		<stop  offset="1" style="stop-color:#595959"/>
	</linearGradient>
	<polygon fill="url(#SVGID_4_)" points="35,33.48 -6,4 -6,44 35,71.785 	"/>
</g>
<g>
	<polygon fill="#494949" points="35,33.004 10,28.004 10,68.004 35,71.814 	"/>
	<polygon fill="#494949" points="264.999,33.004 264.999,71.814 290,68.004 290,28.004 	"/>
</g>
<path display="none" d="M35,140.556c0,55.62,96.481,111.111,96.481,111.111c10.917,10.963,26.121,10.963,37.037,0
	c0,0,96.481-55.491,96.481-111.111V18.519c0-15.408-12.437-4.63-27.778-4.63h-27.037C206.611,5.676,196.527,0,187.037,0h-74.074
	c-9.491,0-19.574,5.676-23.148,13.889H62.778C47.436,13.889,35,3.111,35,18.519V140.556z"/>
<g>
	<polygon fill="#494949" points="35,88.814 10,85.004 10,125.004 35,127.623 	"/>
	<polygon fill="#494949" points="264.999,88.814 264.999,127.623 290,125.004 290,85.004 	"/>
</g>
<polygon fill="#005121" points="10,28.004 10,68.004 115,144.004 150,114.004 185,144.004 290,68.004 290,28.004 185,109.004 
	150,74.004 115,109.004 "/>
<polygon fill="#005121" points="10,85.004 10,125.004 115,196.004 150,166.004 185,196.004 290,125.004 290,85.004 185,161.004 
	150,131.004 115,161.004 "/>
<polygon opacity="0.7" fill="#428700" enable-background="new    " points="10,50.004 10,90.004 115,161.004 150,131.004 
	185,161.004 290,90.004 290,50.004 185,126.004 150,91.004 115,126.004 "/>
<linearGradient id="SVGID_5_" gradientUnits="userSpaceOnUse" x1="116" y1="-18.615" x2="396" y2="-18.615" gradientTransform="matrix(1 0 0 -1 -106 64.8892)">
	<stop  offset="0" style="stop-color:#595959"/>
	<stop  offset="0.25" style="stop-color:#FFFFFF"/>
	<stop  offset="0.75" style="stop-color:#FFFFFF"/>
	<stop  offset="1" style="stop-color:#595959"/>
</linearGradient>
<polygon fill="url(#SVGID_5_)" points="10,28.004 10,68.004 115,139.004 150,109.004 185,139.004 290,68.004 290,28.004 
	185,104.004 150,69.004 115,104.004 "/>
<linearGradient id="SVGID_6_" gradientUnits="userSpaceOnUse" x1="116" y1="-73.115" x2="396" y2="-73.115" gradientTransform="matrix(1 0 0 -1 -106 64.8892)">
	<stop  offset="0" style="stop-color:#595959"/>
	<stop  offset="0.25" style="stop-color:#FFFFFF"/>
	<stop  offset="0.75" style="stop-color:#FFFFFF"/>
	<stop  offset="1" style="stop-color:#595959"/>
</linearGradient>
<polygon fill="url(#SVGID_6_)" points="10,85.004 10,125.004 115,191.004 150,161.004 185,191.004 290,125.004 290,85.004 
	185,156.004 150,126.004 115,156.004 "/>
</svg>
