<?xml version="1.0" encoding="utf-8"?>
<!-- Generator: Adobe Illustrator 16.0.3, SVG Export Plug-In . SVG Version: 6.00 Build 0)  -->
<!DOCTYPE svg PUBLIC "-//W3C//DTD SVG 1.1//EN" "http://www.w3.org/Graphics/SVG/1.1/DTD/svg11.dtd">
<svg version="1.1" id="Layer_1" xmlns="http://www.w3.org/2000/svg" xmlns:xlink="http://www.w3.org/1999/xlink" x="0px" y="0px"
	 width="300px" height="210.801px" viewBox="0 0 300 210.801" enable-background="new 0 0 300 210.801" xml:space="preserve">
<polygon fill-rule="evenodd" clip-rule="evenodd" fill="#999999" points="0,0 0,40.201 115,115.5 150,85.4 190,115.5 300,40.201 
	300,0 185,80.352 150,45.252 115,80.352 "/>
<polygon fill-rule="evenodd" clip-rule="evenodd" fill="#999999" points="0,75.301 0,115.453 115,185.801 150,155.652 190,185.801 
	300,115.453 300,75.301 185,150.652 150,120.5 115,150.652 "/>
<polygon fill-rule="evenodd" clip-rule="evenodd" fill="#FFFFFF" points="0,0 0,40.201 115,140.5 150,110.4 190,140.5 300,40.201 
	300,0 185,105.352 150,70.252 115,105.352 "/>
<polygon fill-rule="evenodd" clip-rule="evenodd" fill="#FFFFFF" points="0,75.301 0,115.453 115,210.801 150,180.652 190,210.801 
	300,115.453 300,75.301 185,175.652 150,145.5 115,175.652 "/>
</svg>
