<?xml version="1.0" encoding="utf-8"?>
<!-- Generator: Adobe Illustrator 16.0.3, SVG Export Plug-In . SVG Version: 6.00 Build 0)  -->
<!DOCTYPE svg PUBLIC "-//W3C//DTD SVG 1.1//EN" "http://www.w3.org/Graphics/SVG/1.1/DTD/svg11.dtd">
<svg version="1.1" id="Layer_1" xmlns="http://www.w3.org/2000/svg" xmlns:xlink="http://www.w3.org/1999/xlink" x="0px" y="0px"
	 width="280px" height="164px" viewBox="10 28.004 280 164" enable-background="new 10 28.004 280 164" xml:space="preserve">
<path display="none" d="M35,140.557c0,55.619,96.481,111.11,96.481,111.11c10.917,10.963,26.121,10.963,37.037,0
	c0,0,96.481-55.491,96.481-111.11V18.519c0-15.408-12.437-4.63-27.778-4.63h-27.037C206.611,5.676,196.527,0,187.037,0h-74.074
	c-9.491,0-19.574,5.676-23.148,13.889H62.778C47.436,13.889,35,3.111,35,18.519V140.557z"/>
<polygon fill="#7CAB5C" enable-background="new    " points="10,50.004 10,90.004 115,161.004 150,131.004 185,161.004 290,90.004 
	290,50.004 185,126.004 150,91.004 115,126.004 "/>
<polygon fill="#1C1B21" points="10,28.004 10,68.004 115,139.004 150,109.004 185,139.004 290,68.004 290,28.004 185,104.004 
	150,69.004 115,104.004 "/>
<polygon fill="#1C1B21" points="10,85.004 10,125.004 115,191.004 150,161.004 185,191.004 290,125.004 290,85.004 185,156.004 
	150,126.004 115,156.004 "/>
</svg>
